<svg xmlns="http://www.w3.org/2000/svg" width="1200" height="700" viewBox="0 0 1200 700">
<rect x="0" y="0" width="1200" height="700" fill="#f8fafc"/>
<style>
text { font-family: Avenir Next, Helvetica, Arial, sans-serif; fill: #0f172a; }
.title { font-size: 22px; font-weight: 700; }
.subtitle { font-size: 12px; fill: #475569; }
.axis { font-size: 12px; }
.legend { font-size: 12px; }
.grid { stroke: #dbe4ee; stroke-width: 1; }
.frame { stroke: #94a3b8; fill: #ffffff; stroke-width: 1; rx: 10; }
</style>
<text class="title" x="96" y="38">ASH_COATED_OSMIUM Spread Actual vs Simulated</text>
<text class="subtitle" x="96" y="58">Distribution view</text>
<line class="grid" x1="96.0" y1="78" x2="96.0" y2="626"/>
<line class="grid" x1="96" y1="78.0" x2="1172" y2="78.0"/>
<line class="grid" x1="311.2" y1="78" x2="311.2" y2="626"/>
<line class="grid" x1="96" y1="187.6" x2="1172" y2="187.6"/>
<line class="grid" x1="526.4" y1="78" x2="526.4" y2="626"/>
<line class="grid" x1="96" y1="297.2" x2="1172" y2="297.2"/>
<line class="grid" x1="741.6" y1="78" x2="741.6" y2="626"/>
<line class="grid" x1="96" y1="406.8" x2="1172" y2="406.8"/>
<line class="grid" x1="956.8" y1="78" x2="956.8" y2="626"/>
<line class="grid" x1="96" y1="516.4" x2="1172" y2="516.4"/>
<line class="grid" x1="1172.0" y1="78" x2="1172.0" y2="626"/>
<line class="grid" x1="96" y1="626.0" x2="1172" y2="626.0"/>
<rect class="frame" x="96" y="78" width="1076" height="548"/>
<rect x="96.00" y="621.83" width="15.93" height="4.17" rx="2" fill="#0f766e" fill-opacity="0.55"/>
<rect x="131.87" y="617.12" width="15.93" height="8.88" rx="2" fill="#0f766e" fill-opacity="0.55"/>
<rect x="167.73" y="626.00" width="15.93" height="0.00" rx="2" fill="#0f766e" fill-opacity="0.55"/>
<rect x="203.60" y="621.56" width="15.93" height="4.44" rx="2" fill="#0f766e" fill-opacity="0.55"/>
<rect x="239.47" y="626.00" width="15.93" height="0.00" rx="2" fill="#0f766e" fill-opacity="0.55"/>
<rect x="275.33" y="624.32" width="15.93" height="1.68" rx="2" fill="#0f766e" fill-opacity="0.55"/>
<rect x="311.20" y="626.00" width="15.93" height="0.00" rx="2" fill="#0f766e" fill-opacity="0.55"/>
<rect x="347.07" y="615.85" width="15.93" height="10.15" rx="2" fill="#0f766e" fill-opacity="0.55"/>
<rect x="382.93" y="608.71" width="15.93" height="17.29" rx="2" fill="#0f766e" fill-opacity="0.55"/>
<rect x="418.80" y="626.00" width="15.93" height="0.00" rx="2" fill="#0f766e" fill-opacity="0.55"/>
<rect x="454.67" y="617.26" width="15.93" height="8.74" rx="2" fill="#0f766e" fill-opacity="0.55"/>
<rect x="490.53" y="626.00" width="15.93" height="0.00" rx="2" fill="#0f766e" fill-opacity="0.55"/>
<rect x="526.40" y="623.05" width="15.93" height="2.95" rx="2" fill="#0f766e" fill-opacity="0.55"/>
<rect x="562.27" y="626.00" width="15.93" height="0.00" rx="2" fill="#0f766e" fill-opacity="0.55"/>
<rect x="598.13" y="621.78" width="15.93" height="4.22" rx="2" fill="#0f766e" fill-opacity="0.55"/>
<rect x="634.00" y="626.00" width="15.93" height="0.00" rx="2" fill="#0f766e" fill-opacity="0.55"/>
<rect x="669.87" y="626.00" width="15.93" height="0.00" rx="2" fill="#0f766e" fill-opacity="0.55"/>
<rect x="705.73" y="624.27" width="15.93" height="1.73" rx="2" fill="#0f766e" fill-opacity="0.55"/>
<rect x="741.60" y="626.00" width="15.93" height="0.00" rx="2" fill="#0f766e" fill-opacity="0.55"/>
<rect x="777.47" y="149.72" width="15.93" height="476.28" rx="2" fill="#0f766e" fill-opacity="0.55"/>
<rect x="813.33" y="626.00" width="15.93" height="0.00" rx="2" fill="#0f766e" fill-opacity="0.55"/>
<rect x="849.20" y="625.08" width="15.93" height="0.92" rx="2" fill="#0f766e" fill-opacity="0.55"/>
<rect x="885.07" y="532.58" width="15.93" height="93.42" rx="2" fill="#0f766e" fill-opacity="0.55"/>
<rect x="920.93" y="626.00" width="15.93" height="0.00" rx="2" fill="#0f766e" fill-opacity="0.55"/>
<rect x="956.80" y="530.90" width="15.93" height="95.10" rx="2" fill="#0f766e" fill-opacity="0.55"/>
<rect x="992.67" y="626.00" width="15.93" height="0.00" rx="2" fill="#0f766e" fill-opacity="0.55"/>
<rect x="1028.53" y="625.89" width="15.93" height="0.11" rx="2" fill="#0f766e" fill-opacity="0.55"/>
<rect x="1064.40" y="626.00" width="15.93" height="0.00" rx="2" fill="#0f766e" fill-opacity="0.55"/>
<rect x="1100.27" y="607.98" width="15.93" height="18.02" rx="2" fill="#0f766e" fill-opacity="0.55"/>
<rect x="1136.13" y="625.97" width="15.93" height="0.03" rx="2" fill="#0f766e" fill-opacity="0.55"/>
<rect x="113.93" y="621.78" width="15.93" height="4.22" rx="2" fill="#c2410c" fill-opacity="0.55"/>
<rect x="149.80" y="617.64" width="15.93" height="8.36" rx="2" fill="#c2410c" fill-opacity="0.55"/>
<rect x="185.67" y="626.00" width="15.93" height="0.00" rx="2" fill="#c2410c" fill-opacity="0.55"/>
<rect x="221.53" y="621.44" width="15.93" height="4.56" rx="2" fill="#c2410c" fill-opacity="0.55"/>
<rect x="257.40" y="626.00" width="15.93" height="0.00" rx="2" fill="#c2410c" fill-opacity="0.55"/>
<rect x="293.27" y="624.37" width="15.93" height="1.63" rx="2" fill="#c2410c" fill-opacity="0.55"/>
<rect x="329.13" y="626.00" width="15.93" height="0.00" rx="2" fill="#c2410c" fill-opacity="0.55"/>
<rect x="365.00" y="615.58" width="15.93" height="10.42" rx="2" fill="#c2410c" fill-opacity="0.55"/>
<rect x="400.87" y="609.04" width="15.93" height="16.96" rx="2" fill="#c2410c" fill-opacity="0.55"/>
<rect x="436.73" y="626.00" width="15.93" height="0.00" rx="2" fill="#c2410c" fill-opacity="0.55"/>
<rect x="472.60" y="617.47" width="15.93" height="8.53" rx="2" fill="#c2410c" fill-opacity="0.55"/>
<rect x="508.47" y="626.00" width="15.93" height="0.00" rx="2" fill="#c2410c" fill-opacity="0.55"/>
<rect x="544.33" y="623.25" width="15.93" height="2.75" rx="2" fill="#c2410c" fill-opacity="0.55"/>
<rect x="580.20" y="626.00" width="15.93" height="0.00" rx="2" fill="#c2410c" fill-opacity="0.55"/>
<rect x="616.07" y="621.46" width="15.93" height="4.54" rx="2" fill="#c2410c" fill-opacity="0.55"/>
<rect x="651.93" y="626.00" width="15.93" height="0.00" rx="2" fill="#c2410c" fill-opacity="0.55"/>
<rect x="687.80" y="626.00" width="15.93" height="0.00" rx="2" fill="#c2410c" fill-opacity="0.55"/>
<rect x="723.67" y="624.50" width="15.93" height="1.50" rx="2" fill="#c2410c" fill-opacity="0.55"/>
<rect x="759.53" y="626.00" width="15.93" height="0.00" rx="2" fill="#c2410c" fill-opacity="0.55"/>
<rect x="795.40" y="149.48" width="15.93" height="476.52" rx="2" fill="#c2410c" fill-opacity="0.55"/>
<rect x="831.27" y="626.00" width="15.93" height="0.00" rx="2" fill="#c2410c" fill-opacity="0.55"/>
<rect x="867.13" y="625.07" width="15.93" height="0.93" rx="2" fill="#c2410c" fill-opacity="0.55"/>
<rect x="903.00" y="530.98" width="15.93" height="95.02" rx="2" fill="#c2410c" fill-opacity="0.55"/>
<rect x="938.87" y="626.00" width="15.93" height="0.00" rx="2" fill="#c2410c" fill-opacity="0.55"/>
<rect x="974.73" y="531.69" width="15.93" height="94.31" rx="2" fill="#c2410c" fill-opacity="0.55"/>
<rect x="1010.60" y="626.00" width="15.93" height="0.00" rx="2" fill="#c2410c" fill-opacity="0.55"/>
<rect x="1046.47" y="625.84" width="15.93" height="0.16" rx="2" fill="#c2410c" fill-opacity="0.55"/>
<rect x="1082.33" y="626.00" width="15.93" height="0.00" rx="2" fill="#c2410c" fill-opacity="0.55"/>
<rect x="1118.20" y="608.32" width="15.93" height="17.68" rx="2" fill="#c2410c" fill-opacity="0.55"/>
<rect x="1154.07" y="625.98" width="15.93" height="0.02" rx="2" fill="#c2410c" fill-opacity="0.55"/>
<text class="axis" x="96.0" y="670" text-anchor="middle">5.00</text>
<text class="axis" x="84" y="82.0" text-anchor="end">0.732</text>
<text class="axis" x="311.2" y="670" text-anchor="middle">8.40</text>
<text class="axis" x="84" y="191.6" text-anchor="end">0.586</text>
<text class="axis" x="526.4" y="670" text-anchor="middle">12</text>
<text class="axis" x="84" y="301.2" text-anchor="end">0.439</text>
<text class="axis" x="741.6" y="670" text-anchor="middle">15</text>
<text class="axis" x="84" y="410.8" text-anchor="end">0.293</text>
<text class="axis" x="956.8" y="670" text-anchor="middle">19</text>
<text class="axis" x="84" y="520.4" text-anchor="end">0.146</text>
<text class="axis" x="1172.0" y="670" text-anchor="middle">22</text>
<text class="axis" x="84" y="630.0" text-anchor="end">0.000</text>
<text class="axis" x="634.0" y="692" text-anchor="middle">Spread</text>
<text class="axis" transform="translate(22 352.0) rotate(-90)" text-anchor="middle">Density</text>
<rect x="106" y="62" width="16" height="10" fill="#0f766e" fill-opacity="0.55"/>
<text class="legend" x="130" y="71">actual</text>
<rect x="106" y="80" width="16" height="10" fill="#c2410c" fill-opacity="0.55"/>
<text class="legend" x="130" y="89">simulated</text>
</svg>